<?xml version="1.0" standalone="no"?>
<!DOCTYPE svg PUBLIC "-//W3C//DTD SVG 20010904//EN"
 "http://www.w3.org/TR/2001/REC-SVG-20010904/DTD/svg10.dtd">
<svg version="1.0" xmlns="http://www.w3.org/2000/svg"
 width="108.000000pt" height="22.000000pt" viewBox="0 0 108.000000 22.000000"
 preserveAspectRatio="xMidYMid meet">

<g transform="translate(0.000000,22.000000) scale(0.100000,-0.100000)"
fill="#000000" stroke="none">
<path d="M170 159 c0 -5 5 -7 10 -4 6 3 10 8 10 11 0 2 -4 4 -10 4 -5 0 -10
-5 -10 -11z"/>
<path d="M550 152 c0 -13 -7 -18 -22 -18 -20 1 -23 -4 -23 -34 0 -31 3 -35 28
-36 26 -1 27 1 27 52 0 30 -2 54 -5 54 -3 0 -5 -8 -5 -18z m-5 -52 c0 -13 -6
-25 -12 -27 -16 -6 -27 21 -19 43 9 23 31 11 31 -16z"/>
<path d="M910 152 c0 -13 -7 -18 -22 -18 -20 1 -23 -4 -23 -34 0 -31 3 -35 28
-36 26 -1 27 1 27 52 0 30 -2 54 -5 54 -3 0 -5 -8 -5 -18z m-5 -52 c0 -13 -6
-25 -12 -27 -16 -6 -27 21 -19 43 9 23 31 11 31 -16z"/>
<path d="M50 110 c0 -46 2 -50 23 -50 30 0 47 18 47 50 0 32 -17 50 -47 50
-21 0 -23 -4 -23 -50z m54 17 c8 -12 8 -22 0 -34 -16 -25 -38 -22 -42 5 -7 50
18 67 42 29z"/>
<path d="M692 148 c-15 -15 -15 -61 0 -76 14 -14 58 -16 58 -4 0 5 -10 8 -21
8 -12 -1 -26 7 -33 17 -15 23 5 53 33 50 13 -2 20 1 16 7 -8 14 -38 13 -53 -2z"/>
<path d="M158 133 c19 -8 15 -61 -5 -66 -10 -3 0 -5 22 -5 22 0 34 2 28 5 -7
2 -13 20 -13 39 0 29 -3 34 -22 33 -13 0 -17 -3 -10 -6z"/>
<path d="M242 128 c-26 -26 -6 -69 32 -67 21 0 21 0 0 9 -43 17 -31 70 11 53
13 -4 16 -3 11 5 -9 15 -39 15 -54 0z"/>
<path d="M330 125 c-26 -31 13 -82 44 -56 19 16 21 42 4 59 -16 16 -33 15 -48
-3z m40 -25 c0 -25 -18 -36 -26 -16 -8 21 3 49 16 41 5 -3 10 -15 10 -25z"/>
<path d="M415 99 c0 -35 2 -39 25 -38 14 0 19 3 13 6 -14 5 -18 45 -6 56 3 4
12 2 20 -4 10 -9 13 -8 13 4 0 10 -10 15 -32 15 -32 0 -33 -2 -33 -39z"/>
<path d="M615 130 c-3 -5 -1 -10 4 -10 6 0 11 5 11 10 0 6 -2 10 -4 10 -3 0
-8 -4 -11 -10z"/>
<path d="M780 125 c-26 -31 13 -82 44 -56 19 16 21 42 4 59 -16 16 -33 15 -48
-3z m40 -25 c0 -10 -5 -22 -10 -25 -13 -8 -24 20 -16 41 8 20 26 9 26 -16z"/>
<path d="M962 128 c-26 -26 -6 -69 32 -67 20 0 20 0 0 9 -36 14 -38 30 -5 30
17 0 31 4 31 8 0 12 -22 32 -35 32 -6 0 -16 -5 -23 -12z m33 -8 c3 -5 -1 -10
-10 -10 -9 0 -13 5 -10 10 3 6 8 10 10 10 2 0 7 -4 10 -10z"/>
<path d="M615 70 c3 -5 8 -10 11 -10 2 0 4 5 4 10 0 6 -5 10 -11 10 -5 0 -7
-4 -4 -10z"/>
</g>
</svg>
